<?xml version="1.0" ?>
<svg viewBox="0 0 32 32"
  xmlns="http://www.w3.org/2000/svg">
  <title/>
  <g data-name="emoji 14" id="emoji_14">
    <path d="M27,10a1,1,0,0,1-.84-.46,17.77,17.77,0,0,0-1.2-1.5A1,1,0,0,1,25,6.64a1,1,0,0,1,1.41.1A20.45,20.45,0,0,1,27.8,8.47a1,1,0,0,1-.3,1.38A1,1,0,0,1,27,10Z"/>
    <path d="M16,30A14,14,0,1,1,23.83,4.39a1,1,0,1,1-1.12,1.66A12,12,0,1,0,28,16a1,1,0,0,1,2,0A14,14,0,0,1,16,30Z"/>
    <path d="M21,16a3,3,0,1,1,3-3A3,3,0,0,1,21,16Zm0-4a1,1,0,1,0,1,1A1,1,0,0,0,21,12Z"/>
    <path d="M16,23.9a10.81,10.81,0,0,1-7.7-3.19,1,1,0,0,1,0-1.41,1,1,0,0,1,1.42,0,8.88,8.88,0,0,0,12.56,0,1,1,0,0,1,1.42,0,1,1,0,0,1,0,1.41A10.81,10.81,0,0,1,16,23.9Z"/>
    <path d="M14,15a1,1,0,0,1-.8-.4,2.75,2.75,0,0,0-4.4,0,1,1,0,1,1-1.6-1.2,4.75,4.75,0,0,1,7.6,0,1,1,0,0,1-.2,1.4A1,1,0,0,1,14,15Z"/>
  </g>
</svg>
